<svg width="20" height="20" viewBox="0 0 20 20" fill="none" xmlns="http://www.w3.org/2000/svg">
<path d="M10 0C4.48594 0 0 4.48594 0 10C0 15.5141 4.48594 20 10 20C15.5141 20 20 15.5141 20 10C20 4.48594 15.5141 0 10 0ZM10 18.5714C5.27355 18.5714 1.42855 14.7264 1.42855 10C1.42855 5.27355 5.27355 1.42855 10 1.42855C14.7264 1.42855 18.5714 5.27355 18.5714 10C18.5714 14.7264 14.7264 18.5714 10 18.5714Z" fill="#A8B1C5"/>
<path d="M9.99957 5.23752C9.60504 5.23752 9.28527 5.55728 9.28527 5.95181V14.047C9.28527 14.4416 9.60504 14.7613 9.99957 14.7613C10.3941 14.7613 10.7139 14.4416 10.7139 14.047V5.95181C10.7139 5.55728 10.3941 5.23752 9.99957 5.23752Z" fill="#A8B1C5"/>
<path d="M14.0489 9.28494H5.95367C5.55913 9.28494 5.23937 9.60471 5.23937 9.99923C5.23937 10.3938 5.55913 10.7135 5.95367 10.7135H14.0489C14.4434 10.7135 14.7632 10.3938 14.7632 9.99923C14.7632 9.60471 14.4434 9.28494 14.0489 9.28494Z" fill="#A8B1C5"/>
</svg>
