<svg width="20" height="19" viewBox="0 0 20 19" fill="none" xmlns="http://www.w3.org/2000/svg">
<path d="M19.9726 7.18014C19.9069 6.98001 19.7345 6.83706 19.5251 6.80438L13.2857 5.92218L10.4779 0.30632C10.3835 0.118444 10.1906 0 9.98123 0C9.77188 0 9.57895 0.118444 9.48454 0.310404L6.71373 5.94261L0.474278 6.86565C0.264928 6.89832 0.0925218 7.04127 0.0268434 7.2414C-0.038835 7.44153 0.0186336 7.66208 0.170515 7.80503L4.69822 12.1711L3.65147 18.3547C3.61453 18.563 3.70073 18.7713 3.87314 18.8938C3.96755 18.9632 4.08249 19 4.19742 19C4.28773 19 4.37393 18.9796 4.45603 18.9347L10.0264 15.9981L15.6132 18.902C15.6953 18.9428 15.7815 18.9632 15.8677 18.9632C16.1714 18.9632 16.4218 18.7141 16.4218 18.4119C16.4218 18.3669 16.4177 18.3261 16.4054 18.2853L15.3258 12.1384L19.8248 7.74785C19.9849 7.60082 20.0382 7.38027 19.9726 7.18014ZM14.3488 11.5544C14.2175 11.681 14.16 11.8648 14.1929 12.0445L15.1329 17.4071L10.2809 14.8871C10.1208 14.8014 9.92787 14.8055 9.76367 14.8871L4.9281 17.4357L5.83528 12.0649C5.86401 11.8852 5.80654 11.7055 5.67519 11.5789L1.7509 7.78869L7.16527 6.98818C7.34588 6.95959 7.50187 6.84931 7.57986 6.68594L9.98533 1.79708L12.4236 6.67369C12.5057 6.83706 12.6617 6.94733 12.8423 6.97592L18.2608 7.74377L14.3488 11.5544Z" fill="#5D668A"/>
</svg>
