<svg width="17" height="20" viewBox="0 0 17 20" fill="none" xmlns="http://www.w3.org/2000/svg">
<path d="M1.29416 19.0185C1.49505 19.082 1.72701 19.0475 1.88402 18.9297L8.5 13.9677L15.116 18.9305L15.1162 18.9306C15.222 19.0092 15.3609 19.05 15.5 19.05C15.5685 19.05 15.6385 19.0404 15.7058 19.0193C15.9059 18.9574 16.05 18.8056 16.05 18.625V2.87502C16.05 2.33893 15.7589 1.85656 15.2968 1.50994C14.8346 1.16331 14.1988 0.95 13.5 0.95H3.49998C2.80119 0.95 2.16543 1.16312 1.70325 1.50965C1.24108 1.85619 0.95 2.33855 0.95 2.87498V18.625C0.95 18.8055 1.09394 18.9573 1.29416 19.0185ZM1.29416 19.0185C1.29407 19.0184 1.29399 19.0184 1.2939 19.0184L1.309 18.9707L1.29441 19.0185C1.29433 19.0185 1.29425 19.0185 1.29416 19.0185ZM8.116 13.0702L2.04998 17.6197V2.87498C2.04998 2.58417 2.20765 2.31654 2.46985 2.11989C2.73205 1.92324 3.09629 1.79999 3.49998 1.79999H13.5C13.9037 1.79999 14.2679 1.92324 14.5301 2.11989C14.7923 2.31654 14.95 2.58417 14.95 2.87498V17.6189L8.884 13.0695L8.8838 13.0693C8.77583 12.9892 8.63696 12.95 8.5 12.95C8.36304 12.95 8.22406 12.9892 8.116 13.0702Z" fill="#5D668A" stroke="#5D668A" stroke-width="0.1"/>
</svg>
