<svg width="15" height="19" viewBox="0 0 15 19" fill="none" xmlns="http://www.w3.org/2000/svg">
<path d="M8.8567 10.0616H5.67491C2.54603 10.0616 0 12.6073 0 15.7365V18.4976H14.5316V15.7365C14.5316 12.6073 11.9856 10.0616 8.8567 10.0616ZM1.10249 17.3952V15.7365C1.10249 13.2151 3.15387 11.1641 5.67491 11.1641H8.8567C11.3777 11.1641 13.4291 13.2151 13.4291 15.7365V17.3952H1.10249Z" fill="#5D668A"/>
<path d="M7.27111 0.671875C4.8515 0.671875 2.88281 2.64056 2.88281 5.06017C2.88281 7.47978 4.8515 9.44846 7.27111 9.44846C9.69071 9.44846 11.6594 7.47978 11.6594 5.06017C11.6594 2.64056 9.69071 0.671875 7.27111 0.671875ZM7.27111 8.34597C5.45934 8.34597 3.98531 6.87193 3.98531 5.06017C3.98531 3.2484 5.45934 1.77437 7.27111 1.77437C9.08287 1.77437 10.5569 3.2484 10.5569 5.06017C10.5569 6.87193 9.08287 8.34597 7.27111 8.34597Z" fill="#5D668A"/>
</svg>
