<svg width="22" height="22" viewBox="0 0 22 22" fill="none" xmlns="http://www.w3.org/2000/svg">
<path d="M20.4408 3.09364C19.4013 2.07857 17.9651 1.57126 16.1316 1.57126C15.6242 1.57126 15.1063 1.65924 14.5785 1.83511C14.0505 2.01111 13.5593 2.24855 13.1055 2.54728C12.6511 2.84591 12.2605 3.12636 11.9329 3.38819C11.6057 3.6501 11.2946 3.92844 11 4.22299C10.7053 3.92844 10.3943 3.6501 10.067 3.38819C9.73949 3.12636 9.34879 2.84608 8.89445 2.54728C8.4402 2.24843 7.9491 2.01115 7.42123 1.83511C6.8934 1.65928 6.37563 1.57126 5.86823 1.57126C4.03483 1.57126 2.59854 2.0787 1.55914 3.09364C0.519743 4.10848 0 5.51614 0 7.31673C0 7.86511 0.0963203 8.43004 0.288574 9.01085C0.480828 9.59195 0.699914 10.0872 0.945401 10.4963C1.19085 10.9054 1.46919 11.3044 1.78021 11.6932C2.09123 12.082 2.31853 12.3499 2.46159 12.4972C2.60478 12.6445 2.71735 12.751 2.79918 12.8166L10.4598 20.2072C10.6072 20.3545 10.7872 20.4284 11 20.4284C11.2127 20.4284 11.3929 20.3545 11.5402 20.2072L19.1886 12.8409C21.0629 10.9669 22 9.1254 22 7.31655C22 5.51584 21.4803 4.10831 20.4408 3.09364ZM18.1205 11.687L11 18.5497L3.86735 11.6747C2.3368 10.1445 1.57166 8.69157 1.57166 7.31655C1.57166 6.65371 1.65963 6.06843 1.8355 5.56112C2.0115 5.05371 2.23657 4.6505 2.51074 4.35178C2.78495 4.05297 3.11841 3.80968 3.51126 3.62129C3.90433 3.43308 4.28896 3.30619 4.66539 3.24074C5.04181 3.17538 5.44279 3.14266 5.86845 3.14266C6.29398 3.14266 6.7524 3.24689 7.24346 3.45565C7.73444 3.66433 8.18663 3.92625 8.5999 4.24131C9.01326 4.55659 9.36724 4.85118 9.66201 5.12527C9.9566 5.39961 10.202 5.65111 10.3985 5.88031C10.5457 6.06043 10.7464 6.15048 11 6.15048C11.2537 6.15048 11.4542 6.06043 11.6016 5.88031C11.798 5.65111 12.0437 5.39948 12.3383 5.12527C12.6329 4.85118 12.9869 4.55672 13.4001 4.24131C13.8135 3.92625 14.2656 3.66433 14.7569 3.45565C15.2478 3.24693 15.7063 3.14266 16.1319 3.14266C16.5575 3.14266 16.9583 3.17538 17.3349 3.24074C17.7115 3.30614 18.0961 3.43308 18.489 3.62129C18.8819 3.80963 19.2154 4.0531 19.4895 4.35178C19.7637 4.6505 19.9888 5.05371 20.1648 5.56112C20.3405 6.06843 20.4285 6.65371 20.4285 7.31655C20.4284 8.69157 19.6592 10.1485 18.1205 11.687Z" fill="#A8B1C5"/>
</svg>
