<svg width="19" height="17" viewBox="0 0 19 17" fill="none" xmlns="http://www.w3.org/2000/svg">
<path d="M2.57949 14.6031L4.79133 13.821L4.79136 13.821C4.86053 13.7966 4.9331 13.7844 5.00562 13.7844C5.12036 13.7844 5.23578 13.8147 5.3335 13.8752C6.55238 14.6192 7.99357 15.0125 9.5 15.0125C13.5797 15.0125 16.8875 12.0854 16.8875 8.5C16.8875 4.91456 13.5797 1.9875 9.5 1.9875C5.4203 1.9875 2.1125 4.91456 2.1125 8.5C2.1125 9.82534 2.5569 11.0942 3.39913 12.1685L2.57949 14.6031ZM2.57949 14.6031L3.46165 12.6607L3.46171 12.6605C3.53541 12.4969 3.51129 12.3112 3.39916 12.1685L2.57949 14.6031ZM0.992721 15.3362H0.992721L0.992669 15.3363C0.904491 15.5319 0.956786 15.7539 1.12311 15.9006C1.23395 15.9984 1.38201 16.05 1.53125 16.05C1.60391 16.05 1.67532 16.0378 1.74527 16.0135L1.74554 16.0134L4.93922 14.8847C6.29515 15.6478 7.86565 16.05 9.5 16.05C14.2082 16.05 18.05 12.6686 18.05 8.5C18.05 4.33138 14.2082 0.95 9.5 0.95C4.79176 0.95 0.95 4.33138 0.95 8.5C0.95 9.94324 1.40545 11.3294 2.26846 12.5258L0.992721 15.3362Z"  stroke="#5D668A" stroke-width="0.8"/>
</svg>
