<svg width="19" height="18" viewBox="0 0 19 18" fill="none" xmlns="http://www.w3.org/2000/svg">
<path d="M14.8476 1.0996L14.8476 1.09961L17.8982 3.98947C17.8982 3.98949 17.8982 3.98951 17.8982 3.98953C18.3673 4.43407 18.3672 5.14126 17.8982 5.58558L6.00735 16.8506C5.98293 16.8737 5.9484 16.893 5.90274 16.9014C5.21612 17.0269 3.76311 17.1162 2.42636 17.1728C1.79836 17.1994 1.21234 17.2183 0.7716 17.2307C0.784699 16.8187 0.804169 16.2813 0.831278 15.7068C0.891149 14.438 0.985224 13.0703 1.11586 12.4295L1.11589 12.4293C1.11985 12.4099 1.13 12.3877 1.15434 12.3646L0.647512 11.8297L1.15434 12.3646L13.0452 1.09965C13.5374 0.633424 14.3556 0.633493 14.8476 1.0996Z" stroke="#5D668A" stroke-width="1.5"/>
</svg>
