<svg width="20" height="20" viewBox="0 0 20 20" fill="none" xmlns="http://www.w3.org/2000/svg">
<g clip-path="url(#clip0)">
<path d="M14.5863 0H5.41382C2.42859 0 0 2.42858 0 5.41381V14.5862C0 17.5714 2.42859 20 5.41382 20H14.5863C17.5714 20 20 17.5714 20 14.5862V5.41381C20 2.42858 17.5714 0 14.5863 0ZM18.8275 14.5862C18.8275 16.9249 16.9249 18.8275 14.5862 18.8275H5.41382C3.0751 18.8275 1.17249 16.9249 1.17249 14.5862V14.5347L4.53537 11.439C4.63058 11.3514 4.77982 11.3514 4.87503 11.4389L7.44827 13.8012C7.74673 14.0753 8.14911 14.2091 8.55255 14.169C8.95584 14.1287 9.32373 13.9175 9.56223 13.5898L14.1032 7.34572C14.1635 7.26302 14.2461 7.24577 14.2899 7.24288C14.3336 7.24028 14.4177 7.24623 14.4882 7.32054L18.8274 11.8928V14.5862H18.8275ZM18.8275 10.1896L15.3387 6.51351C15.0468 6.20589 14.6371 6.04537 14.2134 6.07299C13.7903 6.10061 13.4045 6.31316 13.1551 6.65618L8.61389 12.9002C8.55637 12.9793 8.47763 12.9982 8.43582 13.0023C8.39417 13.0064 8.31329 13.0037 8.24127 12.9374L5.66803 10.5752C5.12741 10.0787 4.28116 10.0795 3.7413 10.5765L1.17249 12.9411V5.41381C1.17249 3.0751 3.0751 1.17248 5.41382 1.17248H14.5863C16.9249 1.17248 18.8275 3.0751 18.8275 5.41381V10.1896Z" fill="#A8B1C5"/>
<path d="M5.58205 3.38818C4.44603 3.38818 3.52165 4.31256 3.52165 5.44873C3.52165 6.58474 4.44603 7.50912 5.58205 7.50912C6.71822 7.50912 7.64244 6.58474 7.64244 5.44873C7.64259 4.31256 6.71822 3.38818 5.58205 3.38818ZM5.58205 6.33648C5.09254 6.33648 4.69414 5.93823 4.69414 5.44857C4.69414 4.95907 5.09254 4.56067 5.58205 4.56067C6.0717 4.56067 6.46996 4.95892 6.46996 5.44857C6.46996 5.93823 6.0717 6.33648 5.58205 6.33648Z" fill="#A8B1C5"/>
</g>
<defs>
<clipPath id="clip0">
<rect width="20" height="20" fill="white"/>
</clipPath>
</defs>
</svg>
