<svg width="15" height="15" viewBox="0 0 15 15" fill="none" xmlns="http://www.w3.org/2000/svg">
<g clip-path="url(#clip0)">
<path d="M14.8526 0.128143C14.7189 0.00227321 14.5248 -0.033891 14.3568 0.0338347L0.294548 5.65876C0.139371 5.72101 0.0295007 5.86018 0.00479631 6.02541C-0.0194697 6.1902 0.0455319 6.3559 0.175535 6.45982L4.6872 10.0708V12.6565C4.6872 12.8295 4.78242 12.9883 4.93484 13.0698C5.00397 13.1069 5.07993 13.1252 5.15592 13.1252C5.24701 13.1252 5.33765 13.0987 5.41593 13.0465L6.78306 12.135L9.51191 14.8628C9.60071 14.9516 9.72066 15.0002 9.84334 15.0002C9.87903 15.0002 9.91519 14.996 9.95092 14.9878C10.1093 14.9503 10.2366 14.8335 10.2878 14.6797L14.9753 0.617503C15.0334 0.444447 14.9854 0.253575 14.8526 0.128143ZM12.5846 1.75256L5.12023 9.21691L1.38906 6.2305L12.5846 1.75256ZM5.62468 11.7808V10.9772L6.10693 11.4592L5.62468 11.7808ZM9.63828 13.664L5.8179 9.84491L13.458 2.20478L9.63828 13.664Z" fill="white"/>
</g>
<defs>
<clipPath id="clip0">
<rect width="15" height="15" fill="white"/>
</clipPath>
</defs>
</svg>
