<svg width="20" height="20" viewBox="0 0 20 20" fill="none" xmlns="http://www.w3.org/2000/svg">
<mask id="path-1-outside-1" maskUnits="userSpaceOnUse" x="0.00195312" y="-0.497986" width="20" height="20" fill="black">
<rect fill="white" x="0.00195312" y="-0.497986" width="20" height="20"/>
<path d="M18.575 7.90121H16.4573C16.3301 7.47495 16.1582 7.06333 15.9443 6.67325L17.4457 5.17183C17.8062 4.81209 17.8068 4.2282 17.447 3.86776C17.4466 3.86734 17.4462 3.86691 17.4457 3.86649L16.1355 2.55622C15.7746 2.19678 15.191 2.19678 14.8301 2.55622L13.3287 4.05764C12.9386 3.84391 12.527 3.67203 12.1007 3.54493V1.42691C12.1007 0.916099 11.6867 0.502014 11.1758 0.502014H9.32605C8.81524 0.502014 8.40115 0.916099 8.40115 1.42691V3.54493C7.97489 3.67203 7.56327 3.84391 7.17319 4.05764L5.67177 2.55622C5.31087 2.19678 4.72733 2.19678 4.36643 2.55622L3.05616 3.86649C2.69568 4.22624 2.69514 4.81012 3.05488 5.17056C3.05531 5.17098 3.05573 5.17141 3.05616 5.17183L4.55758 6.67325C4.34373 7.06333 4.17178 7.47495 4.04456 7.90121H1.92685C1.41604 7.90121 1.00195 8.3153 1.00195 8.82611V10.6759C1.00195 11.1867 1.41604 11.6008 1.92685 11.6008H4.04456C4.17178 12.0271 4.34373 12.4387 4.55758 12.8288L3.05616 14.3302C2.69568 14.6899 2.69514 15.2738 3.05488 15.6343C3.05531 15.6347 3.05573 15.6351 3.05616 15.6355L4.36643 16.9458C4.72733 17.3052 5.31087 17.3052 5.67177 16.9458L7.17319 15.4444C7.56327 15.6582 7.97489 15.83 8.40115 15.9571V18.0751C8.40115 18.5859 8.81524 19 9.32605 19H11.1758C11.6867 19 12.1007 18.5859 12.1007 18.0751V15.9571C12.527 15.83 12.9386 15.6582 13.3287 15.4444L14.8301 16.9458C15.191 17.3052 15.7746 17.3052 16.1355 16.9458L17.4457 15.6355C17.8062 15.2758 17.8068 14.6919 17.447 14.3315C17.4466 14.331 17.4462 14.3306 17.4457 14.3302L15.9443 12.8288C16.1582 12.4387 16.3301 12.0271 16.4573 11.6008H18.575C19.0859 11.6008 19.4999 11.1867 19.4999 10.6759V8.82611C19.4999 8.3153 19.0859 7.90121 18.575 7.90121ZM18.8833 10.6759C18.8833 10.8462 18.7453 10.9842 18.575 10.9842H16.2227C16.0819 10.9841 15.959 11.0794 15.924 11.2157C15.7877 11.7454 15.5759 12.2528 15.295 12.7221C15.2226 12.8434 15.2419 12.9984 15.3419 13.0982L17.0098 14.7664C17.1294 14.8854 17.1299 15.0789 17.0109 15.1985C17.0105 15.1989 17.0102 15.1992 17.0098 15.1996L15.6995 16.5099C15.5784 16.6261 15.3871 16.6261 15.2661 16.5099L13.5982 14.842C13.4984 14.7422 13.3436 14.7229 13.2223 14.7951C12.7528 15.0758 12.2455 15.2877 11.7157 15.424C11.5794 15.4591 11.4841 15.582 11.4841 15.7228V18.0751C11.4841 18.2454 11.3461 18.3834 11.1758 18.3834H9.32605C9.15579 18.3834 9.01775 18.2454 9.01775 18.0751V15.7228C9.01783 15.582 8.92256 15.4591 8.78622 15.424C8.25644 15.2877 7.74906 15.0758 7.27955 14.7951C7.15832 14.7229 7.00351 14.7422 6.90374 14.842L5.23584 16.5099C5.11475 16.6261 4.92345 16.6261 4.80237 16.5099L3.49209 15.1993C3.37309 15.08 3.37309 14.8869 3.49209 14.7677L5.15999 13.0998C5.25996 12.9999 5.27927 12.845 5.20685 12.7236C4.92596 12.2543 4.71415 11.747 4.57792 11.2173C4.54347 11.0804 4.42038 10.9843 4.27918 10.9842H1.92685C1.75659 10.9842 1.61855 10.8462 1.61855 10.6759V8.82611C1.61855 8.65585 1.75659 8.51781 1.92685 8.51781H4.27918C4.41996 8.51789 4.54289 8.42259 4.57792 8.28628C4.71415 7.75658 4.92596 7.24923 5.20685 6.77992C5.27927 6.65861 5.25996 6.50365 5.15999 6.4038L3.49209 4.73559C3.37309 4.61631 3.37309 4.42324 3.49209 4.30397L4.80237 2.99369C4.92345 2.87743 5.11475 2.87743 5.23584 2.99369L6.90374 4.6616C7.00359 4.76129 7.15839 4.78045 7.27955 4.70815C7.74902 4.4271 8.2564 4.21499 8.78622 4.07829C8.92264 4.04322 9.01794 3.92013 9.01775 3.77924V1.42691C9.01775 1.25666 9.15579 1.11861 9.32605 1.11861H11.1758C11.3461 1.11861 11.4841 1.25666 11.4841 1.42691V3.77924C11.4841 3.92002 11.5794 4.04295 11.7157 4.07798C12.2454 4.21429 12.7528 4.42602 13.2223 4.70661C13.3435 4.7789 13.4983 4.75975 13.5982 4.66005L15.2661 2.99215C15.3871 2.87588 15.5784 2.87588 15.6995 2.99215L17.0098 4.30273C17.1294 4.42174 17.1299 4.6152 17.0109 4.73482C17.0105 4.73516 17.0102 4.73555 17.0098 4.7359L15.3419 6.4038C15.2419 6.50365 15.2226 6.65861 15.295 6.77992C15.5759 7.24923 15.7877 7.75658 15.924 8.28628C15.959 8.42259 16.0819 8.51789 16.2227 8.51781H18.575C18.7453 8.51781 18.8833 8.65585 18.8833 8.82611V10.6759Z"/>
</mask>
<path d="M18.575 7.90121H16.4573C16.3301 7.47495 16.1582 7.06333 15.9443 6.67325L17.4457 5.17183C17.8062 4.81209 17.8068 4.2282 17.447 3.86776C17.4466 3.86734 17.4462 3.86691 17.4457 3.86649L16.1355 2.55622C15.7746 2.19678 15.191 2.19678 14.8301 2.55622L13.3287 4.05764C12.9386 3.84391 12.527 3.67203 12.1007 3.54493V1.42691C12.1007 0.916099 11.6867 0.502014 11.1758 0.502014H9.32605C8.81524 0.502014 8.40115 0.916099 8.40115 1.42691V3.54493C7.97489 3.67203 7.56327 3.84391 7.17319 4.05764L5.67177 2.55622C5.31087 2.19678 4.72733 2.19678 4.36643 2.55622L3.05616 3.86649C2.69568 4.22624 2.69514 4.81012 3.05488 5.17056C3.05531 5.17098 3.05573 5.17141 3.05616 5.17183L4.55758 6.67325C4.34373 7.06333 4.17178 7.47495 4.04456 7.90121H1.92685C1.41604 7.90121 1.00195 8.3153 1.00195 8.82611V10.6759C1.00195 11.1867 1.41604 11.6008 1.92685 11.6008H4.04456C4.17178 12.0271 4.34373 12.4387 4.55758 12.8288L3.05616 14.3302C2.69568 14.6899 2.69514 15.2738 3.05488 15.6343C3.05531 15.6347 3.05573 15.6351 3.05616 15.6355L4.36643 16.9458C4.72733 17.3052 5.31087 17.3052 5.67177 16.9458L7.17319 15.4444C7.56327 15.6582 7.97489 15.83 8.40115 15.9571V18.0751C8.40115 18.5859 8.81524 19 9.32605 19H11.1758C11.6867 19 12.1007 18.5859 12.1007 18.0751V15.9571C12.527 15.83 12.9386 15.6582 13.3287 15.4444L14.8301 16.9458C15.191 17.3052 15.7746 17.3052 16.1355 16.9458L17.4457 15.6355C17.8062 15.2758 17.8068 14.6919 17.447 14.3315C17.4466 14.331 17.4462 14.3306 17.4457 14.3302L15.9443 12.8288C16.1582 12.4387 16.3301 12.0271 16.4573 11.6008H18.575C19.0859 11.6008 19.4999 11.1867 19.4999 10.6759V8.82611C19.4999 8.3153 19.0859 7.90121 18.575 7.90121ZM18.8833 10.6759C18.8833 10.8462 18.7453 10.9842 18.575 10.9842H16.2227C16.0819 10.9841 15.959 11.0794 15.924 11.2157C15.7877 11.7454 15.5759 12.2528 15.295 12.7221C15.2226 12.8434 15.2419 12.9984 15.3419 13.0982L17.0098 14.7664C17.1294 14.8854 17.1299 15.0789 17.0109 15.1985C17.0105 15.1989 17.0102 15.1992 17.0098 15.1996L15.6995 16.5099C15.5784 16.6261 15.3871 16.6261 15.2661 16.5099L13.5982 14.842C13.4984 14.7422 13.3436 14.7229 13.2223 14.7951C12.7528 15.0758 12.2455 15.2877 11.7157 15.424C11.5794 15.4591 11.4841 15.582 11.4841 15.7228V18.0751C11.4841 18.2454 11.3461 18.3834 11.1758 18.3834H9.32605C9.15579 18.3834 9.01775 18.2454 9.01775 18.0751V15.7228C9.01783 15.582 8.92256 15.4591 8.78622 15.424C8.25644 15.2877 7.74906 15.0758 7.27955 14.7951C7.15832 14.7229 7.00351 14.7422 6.90374 14.842L5.23584 16.5099C5.11475 16.6261 4.92345 16.6261 4.80237 16.5099L3.49209 15.1993C3.37309 15.08 3.37309 14.8869 3.49209 14.7677L5.15999 13.0998C5.25996 12.9999 5.27927 12.845 5.20685 12.7236C4.92596 12.2543 4.71415 11.747 4.57792 11.2173C4.54347 11.0804 4.42038 10.9843 4.27918 10.9842H1.92685C1.75659 10.9842 1.61855 10.8462 1.61855 10.6759V8.82611C1.61855 8.65585 1.75659 8.51781 1.92685 8.51781H4.27918C4.41996 8.51789 4.54289 8.42259 4.57792 8.28628C4.71415 7.75658 4.92596 7.24923 5.20685 6.77992C5.27927 6.65861 5.25996 6.50365 5.15999 6.4038L3.49209 4.73559C3.37309 4.61631 3.37309 4.42324 3.49209 4.30397L4.80237 2.99369C4.92345 2.87743 5.11475 2.87743 5.23584 2.99369L6.90374 4.6616C7.00359 4.76129 7.15839 4.78045 7.27955 4.70815C7.74902 4.4271 8.2564 4.21499 8.78622 4.07829C8.92264 4.04322 9.01794 3.92013 9.01775 3.77924V1.42691C9.01775 1.25666 9.15579 1.11861 9.32605 1.11861H11.1758C11.3461 1.11861 11.4841 1.25666 11.4841 1.42691V3.77924C11.4841 3.92002 11.5794 4.04295 11.7157 4.07798C12.2454 4.21429 12.7528 4.42602 13.2223 4.70661C13.3435 4.7789 13.4983 4.75975 13.5982 4.66005L15.2661 2.99215C15.3871 2.87588 15.5784 2.87588 15.6995 2.99215L17.0098 4.30273C17.1294 4.42174 17.1299 4.6152 17.0109 4.73482C17.0105 4.73516 17.0102 4.73555 17.0098 4.7359L15.3419 6.4038C15.2419 6.50365 15.2226 6.65861 15.295 6.77992C15.5759 7.24923 15.7877 7.75658 15.924 8.28628C15.959 8.42259 16.0819 8.51789 16.2227 8.51781H18.575C18.7453 8.51781 18.8833 8.65585 18.8833 8.82611V10.6759Z" fill="#5D668A"/>
<path d="M18.575 7.90121H16.4573C16.3301 7.47495 16.1582 7.06333 15.9443 6.67325L17.4457 5.17183C17.8062 4.81209 17.8068 4.2282 17.447 3.86776C17.4466 3.86734 17.4462 3.86691 17.4457 3.86649L16.1355 2.55622C15.7746 2.19678 15.191 2.19678 14.8301 2.55622L13.3287 4.05764C12.9386 3.84391 12.527 3.67203 12.1007 3.54493V1.42691C12.1007 0.916099 11.6867 0.502014 11.1758 0.502014H9.32605C8.81524 0.502014 8.40115 0.916099 8.40115 1.42691V3.54493C7.97489 3.67203 7.56327 3.84391 7.17319 4.05764L5.67177 2.55622C5.31087 2.19678 4.72733 2.19678 4.36643 2.55622L3.05616 3.86649C2.69568 4.22624 2.69514 4.81012 3.05488 5.17056C3.05531 5.17098 3.05573 5.17141 3.05616 5.17183L4.55758 6.67325C4.34373 7.06333 4.17178 7.47495 4.04456 7.90121H1.92685C1.41604 7.90121 1.00195 8.3153 1.00195 8.82611V10.6759C1.00195 11.1867 1.41604 11.6008 1.92685 11.6008H4.04456C4.17178 12.0271 4.34373 12.4387 4.55758 12.8288L3.05616 14.3302C2.69568 14.6899 2.69514 15.2738 3.05488 15.6343C3.05531 15.6347 3.05573 15.6351 3.05616 15.6355L4.36643 16.9458C4.72733 17.3052 5.31087 17.3052 5.67177 16.9458L7.17319 15.4444C7.56327 15.6582 7.97489 15.83 8.40115 15.9571V18.0751C8.40115 18.5859 8.81524 19 9.32605 19H11.1758C11.6867 19 12.1007 18.5859 12.1007 18.0751V15.9571C12.527 15.83 12.9386 15.6582 13.3287 15.4444L14.8301 16.9458C15.191 17.3052 15.7746 17.3052 16.1355 16.9458L17.4457 15.6355C17.8062 15.2758 17.8068 14.6919 17.447 14.3315C17.4466 14.331 17.4462 14.3306 17.4457 14.3302L15.9443 12.8288C16.1582 12.4387 16.3301 12.0271 16.4573 11.6008H18.575C19.0859 11.6008 19.4999 11.1867 19.4999 10.6759V8.82611C19.4999 8.3153 19.0859 7.90121 18.575 7.90121ZM18.8833 10.6759C18.8833 10.8462 18.7453 10.9842 18.575 10.9842H16.2227C16.0819 10.9841 15.959 11.0794 15.924 11.2157C15.7877 11.7454 15.5759 12.2528 15.295 12.7221C15.2226 12.8434 15.2419 12.9984 15.3419 13.0982L17.0098 14.7664C17.1294 14.8854 17.1299 15.0789 17.0109 15.1985C17.0105 15.1989 17.0102 15.1992 17.0098 15.1996L15.6995 16.5099C15.5784 16.6261 15.3871 16.6261 15.2661 16.5099L13.5982 14.842C13.4984 14.7422 13.3436 14.7229 13.2223 14.7951C12.7528 15.0758 12.2455 15.2877 11.7157 15.424C11.5794 15.4591 11.4841 15.582 11.4841 15.7228V18.0751C11.4841 18.2454 11.3461 18.3834 11.1758 18.3834H9.32605C9.15579 18.3834 9.01775 18.2454 9.01775 18.0751V15.7228C9.01783 15.582 8.92256 15.4591 8.78622 15.424C8.25644 15.2877 7.74906 15.0758 7.27955 14.7951C7.15832 14.7229 7.00351 14.7422 6.90374 14.842L5.23584 16.5099C5.11475 16.6261 4.92345 16.6261 4.80237 16.5099L3.49209 15.1993C3.37309 15.08 3.37309 14.8869 3.49209 14.7677L5.15999 13.0998C5.25996 12.9999 5.27927 12.845 5.20685 12.7236C4.92596 12.2543 4.71415 11.747 4.57792 11.2173C4.54347 11.0804 4.42038 10.9843 4.27918 10.9842H1.92685C1.75659 10.9842 1.61855 10.8462 1.61855 10.6759V8.82611C1.61855 8.65585 1.75659 8.51781 1.92685 8.51781H4.27918C4.41996 8.51789 4.54289 8.42259 4.57792 8.28628C4.71415 7.75658 4.92596 7.24923 5.20685 6.77992C5.27927 6.65861 5.25996 6.50365 5.15999 6.4038L3.49209 4.73559C3.37309 4.61631 3.37309 4.42324 3.49209 4.30397L4.80237 2.99369C4.92345 2.87743 5.11475 2.87743 5.23584 2.99369L6.90374 4.6616C7.00359 4.76129 7.15839 4.78045 7.27955 4.70815C7.74902 4.4271 8.2564 4.21499 8.78622 4.07829C8.92264 4.04322 9.01794 3.92013 9.01775 3.77924V1.42691C9.01775 1.25666 9.15579 1.11861 9.32605 1.11861H11.1758C11.3461 1.11861 11.4841 1.25666 11.4841 1.42691V3.77924C11.4841 3.92002 11.5794 4.04295 11.7157 4.07798C12.2454 4.21429 12.7528 4.42602 13.2223 4.70661C13.3435 4.7789 13.4983 4.75975 13.5982 4.66005L15.2661 2.99215C15.3871 2.87588 15.5784 2.87588 15.6995 2.99215L17.0098 4.30273C17.1294 4.42174 17.1299 4.6152 17.0109 4.73482C17.0105 4.73516 17.0102 4.73555 17.0098 4.7359L15.3419 6.4038C15.2419 6.50365 15.2226 6.65861 15.295 6.77992C15.5759 7.24923 15.7877 7.75658 15.924 8.28628C15.959 8.42259 16.0819 8.51789 16.2227 8.51781H18.575C18.7453 8.51781 18.8833 8.65585 18.8833 8.82611V10.6759Z" stroke="#5D668A" stroke-width="0.38" mask="url(#path-1-outside-1)"/>
<path d="M10.2523 6.57239H10.2522C8.49702 6.57239 7.07419 7.99522 7.07419 9.75039C7.07419 11.5056 8.49702 12.9284 10.2522 12.9284C12.0074 12.9284 13.4302 11.5056 13.4302 9.75039L13.4302 9.75028C13.4283 7.99597 12.0066 6.5743 10.2523 6.57239ZM10.2521 12.1218C8.94245 12.1217 7.88079 11.06 7.88079 9.75039C7.88079 8.44071 8.94251 7.37899 10.2522 7.37899C11.5618 7.37899 12.6235 8.44065 12.6236 9.75028C12.6221 11.0594 11.5612 12.1203 10.2521 12.1218Z" fill="#5D668A" stroke="#5D668A" stroke-width="0.19"/>
</svg>
