<svg width="21" height="21" viewBox="0 0 21 21" fill="none" xmlns="http://www.w3.org/2000/svg">
<path d="M10.5 21C13.3046 21 15.9414 19.9078 17.9246 17.9246C19.9078 15.9414 21 13.3046 21 10.5C21 7.69535 19.9078 5.05858 17.9246 3.07535C15.9414 1.09221 13.3046 0 10.5 0C7.69535 0 5.05858 1.09221 3.07535 3.07535C1.09221 5.05858 0 7.69535 0 10.5C0 13.3046 1.09221 15.9414 3.07535 17.9246C5.05858 19.9078 7.69535 21 10.5 21ZM10.5 1.64062C15.3851 1.64062 19.3594 5.61492 19.3594 10.5C19.3594 15.3851 15.3851 19.3594 10.5 19.3594C5.61492 19.3594 1.64062 15.3851 1.64062 10.5C1.64062 5.61492 5.61492 1.64062 10.5 1.64062ZM6.65532 12.3124C7.03754 12.0691 7.54458 12.1818 7.78776 12.5641C7.79789 12.5799 8.81877 14.1529 10.541 14.1529C12.2633 14.1529 13.2841 12.5799 13.2943 12.5641C13.5375 12.1818 14.0445 12.0692 14.4267 12.3124C14.8089 12.5556 14.9216 13.0627 14.6784 13.4448C14.6174 13.5407 13.1538 15.7935 10.541 15.7935C7.92828 15.7935 6.46468 13.5408 6.40365 13.4448C6.16042 13.0626 6.27309 12.5556 6.65532 12.3124ZM14.1094 6.76758C13.5431 6.76758 13.084 7.22667 13.084 7.79297C13.084 8.35927 13.5431 8.81836 14.1094 8.81836C14.6757 8.81836 15.1348 8.35927 15.1348 7.79297C15.1348 7.22667 14.6757 6.76758 14.1094 6.76758ZM7.95703 7.79297C7.95703 8.35927 7.49794 8.81836 6.93164 8.81836C6.36534 8.81836 5.90625 8.35927 5.90625 7.79297C5.90625 7.22667 6.36534 6.76758 6.93164 6.76758C7.49794 6.76758 7.95703 7.22667 7.95703 7.79297Z" fill="#A8B1C5"/>
</svg>
